<?xml version="1.0" encoding="utf-8"?>
<!-- Generator: Adobe Illustrator 22.0.1, SVG Export Plug-In . SVG Version: 6.00 Build 0)  -->
<svg version="1.1" id="Layer_1" xmlns="http://www.w3.org/2000/svg" xmlns:xlink="http://www.w3.org/1999/xlink" x="0px" y="0px"
	 viewBox="0 0 45 45" style="enable-background:new 0 0 45 45;" xml:space="preserve">
<title>icon</title>
<linearGradient id="SVGID_1_" gradientUnits="userSpaceOnUse" x1="0" y1="22.5" x2="45" y2="22.5">
	<stop  offset="0" style="stop-color:#BC91B4"/>
	<stop  offset="1" style="stop-color:#A25484"/>
</linearGradient>
<circle style="fill:url(#SVGID_1_);" cx="22.5" cy="22.5" r="22.5"/>
<g>
	<path style="fill:#FFFFFF;" d="M28.372,22.5c0,0.146-0.056,0.274-0.167,0.385l-7.801,7.802c-0.112,0.111-0.24,0.167-0.385,0.167
		s-0.273-0.056-0.385-0.167l-0.837-0.838c-0.112-0.111-0.167-0.239-0.167-0.385c0-0.145,0.056-0.273,0.167-0.385l6.579-6.58
		l-6.579-6.579c-0.112-0.111-0.167-0.24-0.167-0.385s0.056-0.273,0.167-0.385l0.837-0.837c0.111-0.111,0.24-0.167,0.385-0.167
		s0.273,0.056,0.385,0.167l7.801,7.801C28.315,22.227,28.372,22.355,28.372,22.5z"/>
</g>
</svg>
