<?xml version="1.0" encoding="utf-8"?>
<!-- Generator: Adobe Illustrator 22.0.1, SVG Export Plug-In . SVG Version: 6.00 Build 0)  -->
<svg version="1.1" id="Layer_1" xmlns="http://www.w3.org/2000/svg" xmlns:xlink="http://www.w3.org/1999/xlink" x="0px" y="0px"
	 viewBox="0 0 20 20" style="enable-background:new 0 0 20 20;" xml:space="preserve">
<title>icon</title>
<linearGradient id="SVGID_1_" gradientUnits="userSpaceOnUse" x1="10" y1="22" x2="10" y2="2" gradientTransform="matrix(1 0 0 -1 0 22)">
	<stop  offset="0" style="stop-color:#BC91B4"/>
	<stop  offset="1" style="stop-color:#A25484"/>
</linearGradient>
<circle style="fill:url(#SVGID_1_);" cx="10" cy="10" r="10"/>
<g>
	<path style="fill:#FFFFFF;" d="M10,12.436c-0.072,0-0.137-0.028-0.192-0.084l-3.901-3.9C5.851,8.396,5.824,8.332,5.824,8.26
		c0-0.073,0.028-0.137,0.083-0.193l0.419-0.418c0.056-0.056,0.12-0.084,0.192-0.084S6.655,7.593,6.71,7.649L10,10.937l3.29-3.289
		c0.056-0.056,0.12-0.084,0.193-0.084c0.072,0,0.137,0.028,0.192,0.084l0.418,0.418c0.056,0.057,0.084,0.12,0.084,0.193
		c0,0.072-0.028,0.137-0.084,0.192l-3.9,3.9C10.136,12.408,10.073,12.436,10,12.436z"/>
</g>
</svg>
