<?xml version="1.0" encoding="utf-8"?>
<!-- Generator: Adobe Illustrator 22.0.1, SVG Export Plug-In . SVG Version: 6.00 Build 0)  -->
<svg version="1.1" id="Layer_1" xmlns="http://www.w3.org/2000/svg" xmlns:xlink="http://www.w3.org/1999/xlink" x="0px" y="0px"
	 viewBox="0 0 45 45" style="enable-background:new 0 0 45 45;" xml:space="preserve">
<title>icon</title>
<linearGradient id="SVGID_1_" gradientUnits="userSpaceOnUse" x1="22.5" y1="46" x2="22.5" y2="1" gradientTransform="matrix(1 0 0 -1 0 46)">
	<stop  offset="0" style="stop-color:#BC91B4"/>
	<stop  offset="1" style="stop-color:#A25484"/>
</linearGradient>
<circle style="fill:url(#SVGID_1_);" cx="22.5" cy="22.5" r="22.5"/>
<g>
	<path style="fill:#FFFFFF;" d="M26.684,23.625h-2.637V31.5h-3.516v-7.875h-2.848v-3.27h2.848v-2.461
		c0-0.937,0.176-1.734,0.527-2.391c0.352-0.656,0.849-1.154,1.494-1.494c0.645-0.339,1.389-0.51,2.232-0.51
		c0.375,0,0.773,0.018,1.195,0.053s0.75,0.076,0.984,0.123l0.352,0.035v2.777H25.91c-0.656,0-1.131,0.17-1.424,0.51
		s-0.439,0.756-0.439,1.248v2.109h3.129L26.684,23.625z"/>
</g>
</svg>
