<?xml version="1.0" encoding="utf-8"?>
<!-- Generator: Adobe Illustrator 22.0.1, SVG Export Plug-In . SVG Version: 6.00 Build 0)  -->
<svg version="1.1" id="Layer_1" xmlns="http://www.w3.org/2000/svg" xmlns:xlink="http://www.w3.org/1999/xlink" x="0px" y="0px"
	 viewBox="0 0 55.1 66.2" style="enable-background:new 0 0 55.1 66.2;" xml:space="preserve">
<style type="text/css">
	.st0{fill:url(#SVGID_1_);}
	.st1{fill:url(#SVGID_2_);}
	.st2{fill:url(#SVGID_3_);}
</style>
<g>
	<g>

			<linearGradient id="SVGID_1_" gradientUnits="userSpaceOnUse" x1="27.5" y1="53.0336" x2="27.5" y2="27.4886" gradientTransform="matrix(1 0 0 -1 0 66)">
			<stop  offset="0" style="stop-color:#A55A8D"/>
			<stop  offset="1" style="stop-color:#78024B"/>
		</linearGradient>
		<path class="st0" d="M27.5,38.5c-7.3,0-13.2-11.3-13.2-18.7v-0.9c0-0.3,0.1-0.6,0.4-0.8s0.5-0.3,0.8-0.2l5.6,0.9
			c5.3,0.8,10.9-1.3,14.5-5.5c0.2-0.2,0.5-0.3,0.8-0.4c0.3,0,0.6,0.1,0.8,0.4l3.3,4.1c0.1,0.2,0.2,0.4,0.2,0.6v1.8
			C40.7,27.2,34.8,38.5,27.5,38.5z M16.4,20.1c0.2,6.3,5.3,16.4,11.2,16.4c6,0,11.2-10.4,11.2-16.7v-1.4l-2.4-2.9
			c-4,4.2-9.9,6.2-15.5,5.3L16.4,20.1z"/>
	</g>
	<g>

			<linearGradient id="SVGID_2_" gradientUnits="userSpaceOnUse" x1="27.5709" y1="65.9225" x2="27.5709" y2="-0.1041" gradientTransform="matrix(1 0 0 -1 0 66)">
			<stop  offset="0" style="stop-color:#A55A8D"/>
			<stop  offset="1" style="stop-color:#78024B"/>
		</linearGradient>
		<path class="st1" d="M27.5,66.2c-8.6,0-17.3-1.2-25.5-3.5c-0.3-0.1-0.6-0.3-0.7-0.7C1.2,61.7-1,54.5,0.4,47.6
			c0.7-4.1,2.5-8.3,15-10.2c0.4-0.1,0.7,0.1,0.9,0.4l11.2,14.4l11.2-14.4c0.2-0.3,0.6-0.4,1-0.4c11.1,1.9,13.9,5.1,15,10.2
			c1.5,6.6-0.8,14.1-0.9,14.4c-0.1,0.3-0.4,0.6-0.7,0.7C44.8,65,36.2,66.2,27.5,66.2z M3.1,60.9c15.8,4.4,33.1,4.4,48.8,0
			c0.5-1.8,1.9-7.8,0.7-12.9c-0.9-4.2-3.2-6.8-12.8-8.5L28.3,54.4c-0.4,0.5-1.2,0.5-1.6,0L15.2,39.5C3.6,41.4,2.9,45,2.4,48
			C1.3,53.4,2.7,59.2,3.1,60.9z M52.8,61.7L52.8,61.7L52.8,61.7z M48.2,39.3c-0.5,0-0.9-0.3-1-0.8l-4-24.2C41.5,7.1,35,2,27.5,2
			s-14,5.1-15.7,12.4l-4,24c-0.1,0.5-0.6,0.9-1.1,0.8c-0.5-0.1-0.9-0.6-0.8-1.1l4-24.1c2-8.3,9.3-14,17.7-14s15.7,5.7,17.7,13.8
			l4,24.3c0.1,0.5-0.3,1.1-0.8,1.1C48.3,39.3,48.3,39.3,48.2,39.3z"/>
	</g>
	<g>

			<linearGradient id="SVGID_3_" gradientUnits="userSpaceOnUse" x1="44.15" y1="17.3" x2="44.15" y2="7.6263" gradientTransform="matrix(1 0 0 -1 0 66)">
			<stop  offset="0" style="stop-color:#A55A8D"/>
			<stop  offset="1" style="stop-color:#78024B"/>
		</linearGradient>
		<path class="st2" d="M49.7,58.4H38.6c-0.6,0-1-0.4-1-1v-7.7c0-0.6,0.4-1,1-1h11.1c0.6,0,1,0.4,1,1v7.7
			C50.7,58,50.2,58.4,49.7,58.4z M39.6,56.4h9.1v-5.7h-9.1V56.4z"/>
	</g>
</g>
</svg>
