<?xml version="1.0" encoding="utf-8"?>
<!-- Generator: Adobe Illustrator 22.0.1, SVG Export Plug-In . SVG Version: 6.00 Build 0)  -->
<svg version="1.1" id="Layer_1" xmlns="http://www.w3.org/2000/svg" xmlns:xlink="http://www.w3.org/1999/xlink" x="0px" y="0px"
	 viewBox="0 0 70.4 57.6" style="enable-background:new 0 0 70.4 57.6;" xml:space="preserve">
<style type="text/css">
	.st0{fill:url(#SVGID_1_);}
	.st1{fill:url(#SVGID_2_);}
	.st2{fill:url(#SVGID_3_);}
	.st3{fill:url(#SVGID_4_);}
	.st4{fill:url(#SVGID_5_);}
</style>
<g transform="translate(0,-952.36218)">
	<g>
		<linearGradient id="SVGID_1_" gradientUnits="userSpaceOnUse" x1="10.8348" y1="981.16" x2="59.3964" y2="981.16">
			<stop  offset="0" style="stop-color:#A55A8D"/>
			<stop  offset="1" style="stop-color:#78024B"/>
		</linearGradient>
		<path class="st0" d="M35.1,1010c-2.8,0-5-2-5-4.5v-1.1H11.8c-0.4,0-0.7-0.2-0.9-0.5c-0.2-0.3-0.2-0.7,0.1-1
			c2.8-4,6.1-10.3,6.2-17.1v-10.5c0-8.4,7.3-14.9,13.8-15.5c0,0,0.1,0,0.2,0v0h0.5v-3.1c0-3.1,1.8-4.2,3.4-4.2
			c1.6,0,3.4,1.1,3.4,4.2v3.1l0.6,0c0,0,0.1,0,0.1,0c6.5,0.6,13.8,7.1,13.8,15.5v10.5c0.1,6.8,3.5,13.1,6.2,17.1
			c0.2,0.3,0.2,0.7,0.1,1c-0.2,0.3-0.5,0.5-0.9,0.5H40.1v1.1C40.1,1008,37.9,1010,35.1,1010z M32.1,1004.3v1.1c0,1.2,1.1,2.5,3,2.5
			s3-1.3,3-2.5v-1.1H32.1z M13.7,1002.3h42.9c-2.6-4.2-5.4-10.1-5.5-16.6v-10.5c0-7.1-6.3-13-11.9-13.5c0,0-0.1,0-0.1,0l-7.9,0v0
			c-5.6,0.5-11.9,6.4-11.9,13.5v10.5C19.1,992.2,16.3,998.1,13.7,1002.3z M31.1,960.7L31.1,960.7L31.1,960.7z M35.1,954.4
			c-0.9,0-1.4,0.7-1.4,2.2v3.1l2.8,0v-3.1C36.5,955.1,36.1,954.4,35.1,954.4z M45.6,986.6c-0.6,0-1-0.4-1-1V984c0-0.6,0.4-1,1-1
			s1,0.4,1,1v1.6C46.6,986.2,46.1,986.6,45.6,986.6z M45.6,979.4c-0.6,0-1-0.4-1-1c0-6.3-3.3-10-6.5-10.3l-3,0c-0.6,0-1-0.4-1-1
			s0.4-1,1-1h3.1c4.1,0.4,8.4,4.8,8.4,12.3C46.6,978.9,46.1,979.4,45.6,979.4z"/>
	</g>
	<g>
		<linearGradient id="SVGID_2_" gradientUnits="userSpaceOnUse" x1="0" y1="984.0165" x2="5.9647" y2="984.0165">
			<stop  offset="0" style="stop-color:#A55A8D"/>
			<stop  offset="1" style="stop-color:#78024B"/>
		</linearGradient>
		<path class="st1" d="M5,997.7c-0.3,0-0.6-0.1-0.8-0.4c-0.1-0.1-9.3-12.7,0-26.5c0.3-0.5,0.9-0.6,1.4-0.3c0.5,0.3,0.6,0.9,0.3,1.4
			c-8.5,12.7-0.1,24.1,0,24.2c0.3,0.4,0.2,1.1-0.2,1.4C5.4,997.6,5.2,997.7,5,997.7z"/>
	</g>
	<g>
		<linearGradient id="SVGID_3_" gradientUnits="userSpaceOnUse" x1="5.9893" y1="984.0164" x2="9.5853" y2="984.0164">
			<stop  offset="0" style="stop-color:#A55A8D"/>
			<stop  offset="1" style="stop-color:#78024B"/>
		</linearGradient>
		<path class="st2" d="M8.6,990.1c-0.3,0-0.6-0.1-0.8-0.4c0-0.1-4-5.4,0-11.4c0.3-0.5,0.9-0.6,1.4-0.3c0.5,0.3,0.6,0.9,0.3,1.4
			c-3.2,4.8-0.1,9,0,9.1c0.3,0.4,0.2,1.1-0.2,1.4C9,990.1,8.8,990.1,8.6,990.1z"/>
	</g>
	<g>
		<linearGradient id="SVGID_4_" gradientUnits="userSpaceOnUse" x1="64.4177" y1="984.0162" x2="70.3824" y2="984.0162">
			<stop  offset="0" style="stop-color:#A55A8D"/>
			<stop  offset="1" style="stop-color:#78024B"/>
		</linearGradient>
		<path class="st3" d="M65.4,997.7c-0.2,0-0.4-0.1-0.6-0.2c-0.4-0.3-0.5-1-0.2-1.4c0.3-0.5,8.4-11.5,0-24.2
			c-0.3-0.5-0.2-1.1,0.3-1.4c0.5-0.3,1.1-0.2,1.4,0.3c9.3,13.8,0.1,26.4,0,26.5C66,997.6,65.7,997.7,65.4,997.7z"/>
	</g>
	<g>
		<linearGradient id="SVGID_5_" gradientUnits="userSpaceOnUse" x1="60.7975" y1="984.0162" x2="64.3938" y2="984.0162">
			<stop  offset="0" style="stop-color:#A55A8D"/>
			<stop  offset="1" style="stop-color:#78024B"/>
		</linearGradient>
		<path class="st4" d="M61.8,990.1c-0.2,0-0.4-0.1-0.6-0.2c-0.4-0.3-0.5-1-0.2-1.4l0,0c0.1-0.2,3.1-4.3,0-9.1
			c-0.3-0.5-0.2-1.1,0.3-1.4c0.5-0.3,1.1-0.2,1.4,0.3c4,5.9,0,11.3,0,11.4C62.4,990,62.1,990.1,61.8,990.1z"/>
	</g>
</g>
</svg>
