<?xml version="1.0" encoding="utf-8"?>
<!-- Generator: Adobe Illustrator 22.0.1, SVG Export Plug-In . SVG Version: 6.00 Build 0)  -->
<svg version="1.1" id="Layer_1" xmlns="http://www.w3.org/2000/svg" xmlns:xlink="http://www.w3.org/1999/xlink" x="0px" y="0px"
	 viewBox="0 0 74.4 63.6" style="enable-background:new 0 0 74.4 63.6;" xml:space="preserve">
<style type="text/css">
	.st0{fill:url(#SVGID_1_);}
	.st1{fill:url(#SVGID_2_);}
	.st2{fill:url(#SVGID_3_);}
	.st3{fill:url(#SVGID_4_);}
	.st4{fill:url(#SVGID_5_);}
	.st5{fill:url(#SVGID_6_);}
</style>
<g>
	<linearGradient id="SVGID_1_" gradientUnits="userSpaceOnUse" x1="37.1855" y1="0" x2="37.1855" y2="63.584">
		<stop  offset="0" style="stop-color:#A55A8D"/>
		<stop  offset="1" style="stop-color:#78024B"/>
	</linearGradient>
	<path class="st0" d="M74.4,51.3l0-7.5c0,0,0,0,0,0l0-41.8c0-0.5-0.2-1-0.6-1.4C73.4,0.2,72.9,0,72.3,0L2,0.1c-1.1,0-2,0.9-2,2l0,42
		c0,0,0,0,0,0l0,7.8c0,1.1,0.9,2,2,2l26.3,0c-0.2,2.6-0.4,4.4-0.6,5c-0.2,0.6-0.6,1.3-1.2,2c-0.2,0.3-0.6,0.9-0.9,1.3
		c-0.2,0.3-0.2,0.7,0,1c0.2,0.3,0.5,0.5,0.9,0.5c0,0,0,0,0,0l0.5,0c0.9,0,19.3,0,20.1,0l0.5,0c0.4,0,0.7-0.2,0.9-0.5s0.2-0.7,0-1
		c-0.2-0.4-0.6-0.9-0.9-1.3c-0.5-0.7-1-1.4-1.2-2c-0.2-0.6-0.4-2.5-0.7-5l26.4,0c1.1,0,2-0.9,2-2L74.4,51.3
		C74.4,51.4,74.4,51.4,74.4,51.3z M72.3,2l0,40.8L2,42.9L2,2.1L72.3,2z M44.7,59.4c0.2,0.8,0.7,1.5,1.2,2.2c-3.7,0-13.7,0-17.4,0
		c0.5-0.7,0.9-1.4,1.2-2.2c0.2-0.8,0.5-2.7,0.7-5.6l13.6,0C44.2,56.7,44.5,58.6,44.7,59.4z M72.4,51.7L2,51.8l0-6.9l70.3-0.1l0,6.6
		c0,0,0,0,0,0.1L72.4,51.7z"/>
	<linearGradient id="SVGID_2_" gradientUnits="userSpaceOnUse" x1="36.2332" y1="7.3247" x2="36.2332" y2="38.4756">
		<stop  offset="0" style="stop-color:#A55A8D"/>
		<stop  offset="1" style="stop-color:#78024B"/>
	</linearGradient>
	<path class="st1" d="M14.8,38.5h42.9c0.6,0,1-0.4,1-1V8.3c0-0.6-0.4-1-1-1H14.8c-0.6,0-1,0.4-1,1v29.2C13.8,38,14.2,38.5,14.8,38.5
		z M15.8,9.3h40.9v27.2H15.8V9.3z"/>
	<linearGradient id="SVGID_3_" gradientUnits="userSpaceOnUse" x1="53.5923" y1="10.3301" x2="53.5923" y2="14.8164">
		<stop  offset="0" style="stop-color:#A55A8D"/>
		<stop  offset="1" style="stop-color:#78024B"/>
	</linearGradient>
	<path class="st2" d="M55.5,10.6c-0.4-0.4-1-0.4-1.4,0l-0.5,0.5l-0.5-0.5c-0.4-0.4-1-0.4-1.4,0c-0.4,0.4-0.4,1,0,1.4l0.5,0.5
		l-0.5,0.5c-0.4,0.4-0.4,1,0,1.4c0.2,0.2,0.5,0.3,0.7,0.3s0.5-0.1,0.7-0.3l0.5-0.5l0.5,0.5c0.2,0.2,0.5,0.3,0.7,0.3s0.5-0.1,0.7-0.3
		c0.4-0.4,0.4-1,0-1.4L55,12.6l0.5-0.5C55.9,11.6,55.9,11,55.5,10.6z"/>
	<linearGradient id="SVGID_4_" gradientUnits="userSpaceOnUse" x1="48.612" y1="22.7418" x2="48.612" y2="32.9683">
		<stop  offset="0" style="stop-color:#A55A8D"/>
		<stop  offset="1" style="stop-color:#78024B"/>
	</linearGradient>
	<path class="st3" d="M47.7,23.1c-0.2-0.3-0.7-0.5-1.1-0.4c-0.4,0.1-0.7,0.4-0.7,0.8c-0.2,1.3-0.3,2.6-0.5,3.9
		c-0.1,1.2-0.3,2.3-0.4,3.3c0,0.4,0.1,0.7,0.4,0.9c0.3,0.2,0.7,0.2,1,0.1c0.2-0.1,0.5-0.2,0.7-0.4l0.2,0.8c0.1,0.3,0.2,0.5,0.5,0.6
		c0.2,0.1,0.3,0.1,0.5,0.1c0.1,0,0.2,0,0.3,0l1.4-0.4c0.5-0.1,0.8-0.7,0.7-1.2l-0.2-0.8l0.8,0c0.4,0,0.7-0.2,0.9-0.6s0.1-0.7-0.1-1
		L47.7,23.1z M49.2,28.6c-0.3,0-0.6,0.2-0.8,0.4c0,0-0.1,0.1-0.1,0.1c0,0-0.1-0.1-0.1-0.1c-0.3-0.1-0.6-0.1-0.9,0c0,0-0.1,0-0.1,0
		c0.1-0.4,0.1-0.9,0.2-1.3c0.1-0.5,0.1-1,0.2-1.5L49.2,28.6L49.2,28.6z"/>
	<linearGradient id="SVGID_5_" gradientUnits="userSpaceOnUse" x1="33.2302" y1="14.3569" x2="33.2302" y2="16.3569">
		<stop  offset="0" style="stop-color:#A55A8D"/>
		<stop  offset="1" style="stop-color:#78024B"/>
	</linearGradient>
	<path class="st4" d="M19.2,16.4h28.1c0.6,0,1-0.4,1-1s-0.4-1-1-1H19.2c-0.6,0-1,0.4-1,1S18.6,16.4,19.2,16.4z"/>
	<linearGradient id="SVGID_6_" gradientUnits="userSpaceOnUse" x1="31.033" y1="18.7515" x2="31.033" y2="20.7515">
		<stop  offset="0" style="stop-color:#A55A8D"/>
		<stop  offset="1" style="stop-color:#78024B"/>
	</linearGradient>
	<path class="st5" d="M42.9,18.8H19.2c-0.6,0-1,0.4-1,1s0.4,1,1,1h23.7c0.6,0,1-0.4,1-1S43.5,18.8,42.9,18.8z"/>
</g>
</svg>
