<?xml version="1.0" encoding="utf-8"?>
<!-- Generator: Adobe Illustrator 22.0.1, SVG Export Plug-In . SVG Version: 6.00 Build 0)  -->
<svg version="1.1" id="Layer_1" xmlns="http://www.w3.org/2000/svg" xmlns:xlink="http://www.w3.org/1999/xlink" x="0px" y="0px"
	 viewBox="0 0 63.5 63.5" style="enable-background:new 0 0 63.5 63.5;" xml:space="preserve">
<style type="text/css">
	.st0{fill:url(#SVGID_1_);}
	.st1{fill:#78024B;}
</style>
<g>
	<g>
		<linearGradient id="SVGID_1_" gradientUnits="userSpaceOnUse" x1="31.738" y1="0" x2="31.738" y2="63.4766">
			<stop  offset="0" style="stop-color:#A55A8D"/>
			<stop  offset="1" style="stop-color:#78024B"/>
		</linearGradient>
		<path class="st0" d="M62.5,63.5H50c0,0-0.1,0-0.1,0c0,0-0.1,0-0.1,0H26.6c0,0-0.1,0-0.1,0H13.8c0,0-0.1,0-0.1,0c0,0-0.1,0-0.1,0H1
			c-0.6,0-1-0.4-1-1V47.4c0,0,0-0.1,0-0.1c0,0,0-0.1,0-0.1V18.9c0-0.6,0.4-1,1-1h11.8V1c0-0.6,0.4-1,1-1h35.9c0.6,0,1,0.4,1,1v16.9
			h11.8c0.6,0,1,0.4,1,1v28.2c0,0,0,0.1,0,0.1c0,0,0,0.1,0,0.1v15.1C63.5,63,63,63.5,62.5,63.5z M50.7,61.5h10.8V48.1H50.7V61.5z
			 M37.9,61.5h10.8V2H14.8v59.5h10.8V47.1c0-0.6,0.4-1,1-1h10.2c0.6,0,1,0.4,1,1V61.5z M27.6,61.5h8.2V48.1h-8.2V61.5z M2,61.5h10.8
			V48.1H2V61.5z M50.7,46.1h10.8V35.3H50.7V46.1z M2,46.1h10.8V35.3H2V46.1z M50.7,33.3h10.8V19.9H50.7V33.3z M2,33.3h10.8V19.9H2
			V33.3z"/>
	</g>
</g>
<path class="st1" d="M45.7,22l-0.6-0.7c-1.3-1.4-3.1-2.2-4.9-2.8c-2.1-0.8-5.5-1.3-7.7-1.3h-0.2c-2.3,0-3.7,0-6,0.5
	c-2.7,0.5-6.8,1.8-8.5,4.3c-0.3,0.4-0.7,1.2-0.7,1.9v0c0,1,0.1,1.5,0.7,2.4c0.7,1,1.7,1.7,2.8,2.4c2.8,1.6,7.3,2.4,10.4,2.4h0.2
	c2.3,0,3.7,0,6-0.5c1.4-0.3,2.8-0.6,4-1.1c1.6-0.7,3.5-1.7,4.5-3.2c0.4-0.6,0.7-1.3,0.7-1.9v-0.5C46.3,23.2,46.1,22.6,45.7,22z
	 M43.3,27.9c-1,0.6-1.3,0.8-2.5,1.2c-1.2,0.4-2.5,0.8-3.8,1.1c-4.8,0.8-9.7,0.6-14.2-1.1c-1.5-0.5-3.5-1.6-4.4-2.9
	c-0.3-0.4-0.7-1.1-0.7-1.8c0-1,0.1-1.4,0.7-2.2c0.3-0.5,0.8-0.9,1.2-1.2c0.5-0.4,0.9-0.7,1.5-1c0.9-0.5,2.5-1.1,3.5-1.4
	c4.7-1.2,9.8-1.2,14.4,0c1.1,0.3,1.8,0.6,2.7,1c0.7,0.3,1,0.5,1.6,0.9c0.3,0.2,0.5,0.3,0.7,0.5c0.5,0.3,0.9,0.8,1.2,1.2
	C46.8,24.5,45.3,26.7,43.3,27.9z"/>
<path class="st1" d="M39.3,24.6l0.3-0.7c-0.3,0-0.4,0-0.6,0.1c-0.1,0.3-0.2,0.5-0.3,0.8c0,0-0.1,0.1-0.1,0.2
	c-0.1,0.2-0.3,0.3-0.5,0.3c0-0.3,0.4-1,0.5-1.3c-0.4,0.1-0.6,0-0.7,0.2c-0.2,0.3,0,0.3-0.6,0.8c-0.1,0.1-0.2,0.2-0.4,0.2
	c0-0.4,0.4-0.8,0.5-1.2c-0.7,0.2-0.6-0.1-0.9,0.6c-0.2,0.5-0.1,0.6-0.7,0.7c0-0.3,0.7-1.2,0.2-1.3c-0.4-0.1-0.8,0.6-1.1,0.8
	c0.1-0.3,0.2-0.3,0.2-0.7c-0.6-0.3-0.8,0.4-1.3,0.7l0.4-0.9C34,24,33.9,24,33.6,24L33,25.5c1,0,0.3,0,1.2-0.8
	c0.1-0.1,0.3-0.2,0.4-0.3c0,0.2-0.4,0.8-0.5,1.1c0.7,0,0.5,0,0.9-0.4c0.2-0.2,0.4-0.5,0.7-0.7c-0.1,0.3-0.4,0.6-0.4,1
	c0.3,0.2,0.2,0.2,0.5,0c0.2-0.1,0.4-0.2,0.6-0.2c0.1,0.8,1-0.2,1.2-0.2c-0.1,0.2-0.1,0.2-0.1,0.4c0.4,0.2,0.6,0,1-0.1
	c0,0.1,0,0.1-0.1,0.2c0.9,0,0.6-0.2,1-0.5c0.1,0.3,0.2,0.5,0.6,0.5c0.2,0,0.7-0.2,0.9-0.3c0,0.1,0.1,0.4,0.6,0.2
	c0.2-0.1,0.4-0.2,0.5-0.4c0,0.6,0.5,0.4,0.9,0.2c0.2-0.1,0.2-0.1,0.2-0.3c-0.4,0.1-1,0.7-0.3-0.7c-1,0-0.5,0.8-1.4,0.8
	c0-0.5,0.4-0.9,0.8-1c0.1,0.3,0.1,0.2,0.6,0.1c-0.3-0.5-1.7-0.3-2,0.5c-0.1,0.2,0,0.5-0.7,0.5c-0.2-0.2-0.2-0.2-0.3-0.6
	c-0.1,0.1-0.2,0.1-0.3,0.1c0.2-0.3,0.5-0.4,1-0.4v-0.5C39.7,23.9,39.7,24.4,39.3,24.6 M39.3,24.6l0,0.1L39.3,24.6z"/>
<path class="st1" d="M22,22.7c0.2,0,0.7-0.2,0.9-0.2c0-0.5,0.1-0.8,0.5-1.1C24,21,24.2,21,24.8,21c0.3,0,0.5,0.2,0.6,0.4
	c0.1,0.3,0.1,0.5,0.1,0.8c-0.1,0.9-0.1,1.5-1.5,1c-0.2-0.1-0.5-0.2-0.7-0.2c-0.5,0-1.1,0.4-1.3,0.6c0.4,0.1,0.3-0.3,1-0.2
	c0.7,0.1,1.1,0.6,2.2,0c-0.1,0.3-0.3,0.6-0.5,0.8c-1.5,1.8-4.1,1.9-5.3,0.1c-0.3,0.1-0.4,0.3-0.6,0.4c0.2,0.7,1.6,1.3,2.5,1.3
	c1.3,0,2.5-0.2,3.4-1c0.5-0.4,0.3-0.3,0.7-0.7c1-1.2,1-3.6-0.7-3.6c-0.7,0-1.4,0.2-1.8,0.5C22.4,21.6,22,22,22,22.7"/>
<path class="st1" d="M30.8,28.6c-0.2-0.8,0.4-1.3,0.4-2c-0.2,0-0.5,0.4-0.7,0.6c-0.2,0.2-0.4,0.5-0.7,0.5H22v0.2h7.7
	c0.4,0,0.6-0.2,0.8-0.4c-0.1,0.5-0.1,1.1,0.1,1.5c0.1,0.2,0.1,0.4,0.3,0.4c0.1-0.6,0.4-2.1,0.9-2.4c0,0.6-0.5,0.7-0.1,2.4
	c0.1,0.3,0.2,0.6,0.4,0.7c0.3-1.1-0.1-2.3,1-2.3h8.3v-0.2h-8.6c-0.3,0-0.5,0.3-0.6,0.5c-0.1,0.1-0.2,0.7-0.2,0.9H32
	c-0.3-1.3,0.6-2.1,0.7-2.8c-0.5,0-0.9,0.6-1.2,0.9C31.1,27.8,31,28.4,30.8,28.6"/>
<path class="st1" d="M29.9,24.8c0.1-0.2,0.2-0.4,0.2-0.5c0-0.3-0.2-0.3-0.4-0.3c-0.3,0.1-0.6,0.5-0.9,0.7c0-0.3,0.2-0.5,0.3-0.8
	c-0.2,0-0.3,0.1-0.6,0.1l-0.6,1.5c0.9,0,0.5-0.1,0.8-0.4c0.1-0.1,0.1-0.1,0.2-0.1c0.2-0.1,0.3-0.4,0.5-0.5c0,0.2-0.4,0.8-0.5,1.1
	c0.8,0,0.5,0,0.9-0.4c0.2-0.2,0.5-0.5,0.7-0.7c-0.1,0.3-0.4,0.6-0.4,1c0.5,0.3,0.5,0,1.1-0.2c0.2,0.6,1.5,0.1,1.6,0
	c0.1-0.1,0.1,0,0.1-0.2c-0.3,0.1-0.7,0.4-1.1,0.2c0.1-0.2-0.1,0,0.5-0.2c0.2-0.1,0.4-0.1,0.5-0.3c0.8-0.7-0.5-1.1-1.3-0.3
	c-0.6,0.6,0,0.6-0.8,0.8c0-0.4,0.4-0.7,0.4-1.1C30.6,23.7,30.5,24.4,29.9,24.8 M31.9,25c0.1-0.2,0.1-0.3,0.3-0.5
	c0.1-0.2,0.2-0.3,0.5-0.3C32.6,24.6,32.2,24.9,31.9,25z"/>
<path class="st1" d="M24.8,25.1c0,0.2-0.1,0.3,0,0.3c0.1,0.1,1-0.2,1.2-0.3c0,0.1,0,0.2,0.1,0.3c0.2,0.2,0.5,0.1,0.7,0.1
	c0.5,0,0.7-0.2,1.1-0.3V25c-0.2,0-1.2,0.5-1.2,0c0-0.2,0.2-0.4,0.3-0.6c0.2-0.3,0.4-0.3,0.6-0.3c0,0.2,0,0.2-0.1,0.3
	c0.2,0,0.4-0.1,0.5-0.2C28,24,27.6,24,27.3,24C26.1,24.2,26.4,25.1,24.8,25.1"/>
<path class="st1" d="M29,22.7h0.4c0-0.2,0.1-0.7,0.1-0.9c0,0,0,0,0,0l0.3,0.9h0.3c0-0.2,0.1-0.3,0.1-0.5c0-0.1,0.1-0.2,0.1-0.2
	c0.1-0.1,0-0.1,0.1-0.2c0,0.4,0.1,0.5,0.1,0.9h0.4c0-0.5-0.2-0.9-0.2-1.4h-0.5c-0.1,0.3-0.2,0.6-0.3,0.9l0-0.1c0,0,0-0.1,0-0.1
	c-0.1-0.2-0.1-0.5-0.2-0.7h-0.4c0,0.2-0.1,0.5-0.1,0.7C29.1,22.2,29,22.4,29,22.7"/>
<path class="st1" d="M32.4,22.5l0.1,0.5h0.3v-0.4h1v0.4h0.3c0-0.2,0.1-0.2,0.1-0.5c0-0.2,0,0-0.1-0.2c0,0,0,0,0,0c0,0,0,0,0,0
	l-0.1-1.1h-0.9C32.8,22.1,32.7,22.1,32.4,22.5 M33.4,21.6c0,0.2,0.1,0.7,0.1,0.9h-0.6c0.1-0.2,0.1-0.2,0.2-0.5
	C33.2,21.6,33.1,21.6,33.4,21.6z"/>
<path class="st1" d="M39.9,21.3v2h0.4v-0.6c1.1,0.3,1.1-1.4,0.3-1.4L39.9,21.3z M40.3,22.4v-0.9c0.3-0.1,0.5,0,0.5,0.4V22
	C40.8,22.3,40.6,22.4,40.3,22.4z"/>
<path class="st1" d="M34.2,22.7h1v0.4h0.3c0-1.1-0.1-0.3-0.1-0.8c0-0.3,0-0.7,0-1H35v1.1h-0.4v-1.1h-0.4L34.2,22.7z"/>
<path class="st1" d="M37.2,21.4v1.3h0.4v-0.6H38v0.6h0.4v-1.4H38v0.6h-0.4c0-0.6,0.1-0.6-0.3-0.6C37.2,21.2,37.2,21.3,37.2,21.4"/>
<path class="st1" d="M31,21.9c0,0.9,0.7,0.8,1.3,0.7c0-0.1-0.1-0.2-0.1-0.3c-0.5,0.1-0.7,0.2-0.7-0.2c0.1-0.1,0.6-0.1,0.9-0.1
	c0-0.6,0-0.8-0.7-0.8C31.3,21.2,31,21.6,31,21.9 M31.4,21.9c0-0.5,0.5-0.6,0.5-0.1C31.5,21.8,31.7,21.9,31.4,21.9z"/>
<path class="st1" d="M35.7,21.8c0,1,0.8,1,1.2,0.8c0-0.1,0-0.1-0.1-0.3c-0.3,0.1-0.7,0.2-0.8-0.2c0.6-0.1,0.9,0,0.9-0.3
	C37,21,35.7,21.1,35.7,21.8 M36,21.9c0.2-0.4,0.1-0.4,0.5-0.3c0,0.1,0,0.1,0.1,0.3C36.3,21.8,36.3,21.9,36,21.9z"/>
<polygon class="st1" points="38.6,21.6 39,21.6 39,22.7 39.3,22.7 39.3,21.6 39.7,21.6 39.7,21.2 38.6,21.2 "/>
</svg>
