<?xml version="1.0" encoding="utf-8"?>
<!-- Generator: Adobe Illustrator 22.0.1, SVG Export Plug-In . SVG Version: 6.00 Build 0)  -->
<svg version="1.1" id="Слой_1" xmlns="http://www.w3.org/2000/svg" xmlns:xlink="http://www.w3.org/1999/xlink" x="0px" y="0px"
	 viewBox="0 0 149 70.8" style="enable-background:new 0 0 149 70.8;" xml:space="preserve">
<style type="text/css">
	.st0{fill:#ffffff;}
</style>
<path class="st0" d="M145.4,24.5l-2.9-3.7c-6.7-6.9-15.8-11.1-24.7-14.3C107.3,2.6,89.6,0,78.4,0h-1.1C65.8,0,58.5,0.1,46.9,2.4
	C33.2,5.1,12.2,11.6,3.7,24.3C2.3,26.5,0,30.6,0,33.9v0.2c0,5.1,0.4,7.5,3.6,12.2c3.5,5.3,8.6,8.9,14,12c14.5,8.4,37,12.5,52.9,12.5
	h1.1c11.5,0,18.8-0.1,30.4-2.4c7.2-1.4,14.2-3.2,20.3-5.8c8.2-3.4,17.9-8.5,22.9-16.1c2.2-3.3,3.4-6.5,3.7-9.8V34
	C148.7,30.8,147.5,27.7,145.4,24.5z M133.2,54.5c-4.9,2.9-6.7,4.1-12.7,6.3c-6.2,2.2-12.6,4.2-19.6,5.4c-24.3,4.2-49.2,2.9-72.4-5.4
	c-7.8-2.8-17.6-8.3-22.4-15c-1.5-2.1-3.6-5.8-3.6-9.1c0-5,0.5-7.2,3.5-11.4c1.7-2.4,3.9-4.4,6.2-6.3c2.3-1.9,4.8-3.4,7.5-4.9
	c4.7-2.6,13-5.7,18-7c23.9-6.3,49.7-6.3,73.6,0c5.4,1.4,9,3,13.8,4.9c3.4,1.4,5.1,2.6,8.1,4.4c1.4,0.8,2.4,1.7,3.7,2.6
	c2.4,1.8,4.5,3.9,6.2,6.3C151.4,37.1,143.6,48.3,133.2,54.5z"/>
<path class="st0" d="M113.2,38l1.6-3.5c-1.6,0-2.1,0.2-3.3,0.3c-0.3,1.5-1,2.5-1.5,3.9c-0.1,0.2-0.3,0.8-0.4,0.9
	c-0.5,0.9-1.5,1.3-2.6,1.4c0-1.7,2-5.2,2.7-6.5c-1.9,0.4-3,0-3.7,1.2c-0.9,1.6,0.1,1.6-2.9,3.9c-0.6,0.5-1.1,1-1.8,1.2
	c0.2-1.8,2.3-4.3,2.7-6.2c-3.4,0.8-3-0.4-4.4,2.9c-1,2.5-0.8,2.9-3.8,3.6c0.1-1.8,3.7-5.9,1-6.4c-1.9-0.4-4.3,3.3-5.6,4.2
	c0.4-1.8,1.1-1.3,1.1-3.8c-3.1-1.5-4.1,2-6.8,3.8l1.9-4.3c-1.2,0-1.7,0.3-3.3,0.3l-3.3,7.6c4.9,0,1.6,0,5.9-3.9
	c0.5-0.4,1.5-1.2,2-1.6c-0.1,1.2-1.9,4.3-2.4,5.4c3.8,0,2.7-0.2,4.7-2.1c1.1-1.1,2.3-2.5,3.5-3.3c-0.4,1.8-1.9,2.9-1.9,4.9
	c1.3,0.9,1,0.8,2.7,0.2c0.8-0.3,2.2-0.9,3-1.1c0.3,4,5-0.8,6-1.1c-0.4,0.8-0.5,0.9-0.5,2.2c2.1,1,2.9-0.1,4.9-0.5
	c-0.1,0.5-0.1,0.4-0.3,0.8c4.8,0,2.9-1,4.9-2.4c0.8,1.6,0.8,2.5,3,2.7c1.3,0.1,3.7-0.9,4.6-1.3c0.1,0.3,0.4,1.9,2.9,1.1
	c1.3-0.4,1.8-1.2,2.8-1.9c0,3.2,2.6,2,4.7,0.9c1-0.5,1-0.4,1.2-1.5c-1.9,0.5-5.1,3.5-1.4-3.5c-5.2,0-2.8,4-7.1,4.1
	c0-2.7,2-4.8,4.1-4.9c0.3,1.3,0.5,0.9,3,0.3c-1.7-2.6-8.6-1.4-10.1,2.7c-0.5,1.2,0.2,2.8-3.8,2.8c-0.8-1.2-0.9-0.9-1.4-3
	c-0.5,0.3-1,0.4-1.6,0.5c1.1-1.7,2.3-2.2,5.2-2.2v-2.4C115.2,34.2,115.1,36.7,113.2,38 M113.2,38l-0.1,0.6L113.2,38z"/>
<path class="st0" d="M25,28.2c1-0.2,3.5-0.8,4.6-0.8c0-2.4,0.4-4.1,2.7-5.7c3-2.1,3.8-2.2,7.1-2.2c1.3,0,2.4,1,2.9,2
	c0.6,1.3,0.6,2.6,0.4,4.1C42,30.1,42,33,35.2,30.7c-0.8-0.3-2.6-0.8-3.5-0.8c-2.5,0-5.8,1.8-6.8,3.3c1.9,0.4,1.3-1.6,4.9-1.1
	c3.5,0.4,5.4,3,11.1,0.1c-0.3,1.3-1.7,3.3-2.5,4.3c-7.5,9.2-20.8,9.8-27.1,0.4c-1.6,0.4-1.9,1.5-3.3,1.9c0.9,3.7,8,6.5,12.8,6.5
	c6.6,0,12.8-1.1,17.6-5c2.4-2,1.8-1.3,3.5-3.5c4.9-5.9,5-18.4-3.7-18.4c-3.4,0-7,1.3-9,2.7C27,22.4,25,24.4,25,28.2"/>
<path class="st0" d="M69.5,58.1c-1-3.9,2.2-6.5,2.2-10.3c-0.9,0.2-2.6,2.1-3.3,2.9c-1,1.1-1.8,2.8-3.7,2.8H25v1.1h39.4
	c2,0,2.9-1.1,4.1-1.9c-0.6,2.6-0.4,5.4,0.5,7.9c0.5,1.1,0.6,1.9,1.6,2.2c0.7-3.1,2.1-10.5,4.6-12.2c0,2.9-2.7,3.8-0.5,12.2
	c0.4,1.4,0.8,3.1,2.2,3.5c1.3-5.6-0.6-11.7,4.9-11.7H124v-1.1H80.3c-1.5,0-2.5,1.3-3,2.4c-0.3,0.7-1,3.5-1.1,4.3h-0.5
	c-1.5-6.6,3.3-10.9,3.5-14.1c-2.5,0-4.8,2.8-6.1,4.8C71,54.1,70.8,57.2,69.5,58.1"/>
<path class="st0" d="M65.1,38.8c0.3-1.1,1-1.8,1.1-2.8c0.1-1.6-1.1-1.7-2.1-1.3c-1.7,0.7-2.9,2.8-4.4,3.8c0.1-1.6,1.3-2.5,1.6-4.1
	c-1.2,0.1-1.7,0.3-3.3,0.3l-3.3,7.6c4.6,0,2.4-0.4,4.3-2.2c0.5-0.5,0.4-0.3,0.9-0.7c1-0.8,1.7-1.8,2.7-2.5c-0.1,1.2-1.9,4.3-2.4,5.4
	c4.1,0,2.7-0.1,4.7-2.1c1-1,2.3-2.6,3.5-3.3c-0.4,1.8-1.9,2.9-1.9,4.9c2.3,1.6,2.5-0.1,5.7-0.8c0.8,3.1,7.6,0.3,8.1-0.1
	c0.8-0.5,0.5,0.1,0.6-1c-1.6,0.4-3.8,2-5.7,1.1c0.4-1-0.5,0,2.6-1.2c1.1-0.4,1.9-0.7,2.7-1.4c4-3.5-2.4-5.8-6.8-1.4
	c-3.2,3.1,0,3.1-3.9,4c0.2-2,2-3.4,2.2-5.7C68.9,33.3,68.3,36.7,65.1,38.8 M75.2,39.6c0.5-1.1,0.5-1.5,1.3-2.5
	c0.7-0.8,1.2-1.5,2.5-1.6C78.8,37.7,77,39.5,75.2,39.6z"/>
<path class="st0" d="M39.4,40.2c-0.2,0.8-0.7,1.5-0.2,1.7c0.7,0.3,5.2-1.3,6.1-1.7c0.2,0.7,0.2,1.1,0.6,1.5c0.9,0.8,2.6,0.6,3.7,0.6
	c2.6,0,3.6-1.2,5.4-1.6v-0.8c-0.9,0.2-6.2,2.4-6.2,0c0-1.1,0.9-2.2,1.5-2.9c1.2-1.3,1.8-1.5,3.1-1.5c0,0.8-0.1,1-0.3,1.6
	c1.1-0.1,2.2-0.4,2.7-1.1c-0.4-1.7-2.4-1.6-4-1.3C45.7,35.8,47.2,40.2,39.4,40.2"/>
<path class="st0" d="M60.5,27.9h1.9c0-1.3,0.4-3.4,0.5-4.6c0,0.1,0.1,0.1,0.1,0.2l1.5,4.4h1.6c0.1-0.9,0.3-1.4,0.6-2.3
	c0.2-0.5,0.3-0.9,0.4-1.2c0.3-0.7,0.2-0.6,0.6-1c0,2,0.3,2.7,0.3,4.6H70c0-2.5-0.8-4.8-0.8-7.3h-2.4c-0.4,1.6-1,3.1-1.4,4.6
	l-0.2-0.3c0-0.1-0.2-0.6-0.2-0.6c-0.4-1.2-0.5-2.3-1.2-3.7h-2.2c-0.3,1.1-0.4,2.3-0.5,3.5C60.9,25.4,60.6,26.8,60.5,27.9"/>
<path class="st0" d="M77.9,27.1l0.3,2.7h1.4v-1.9h4.9v1.9h1.4c0-1.2,0.3-1.1,0.3-2.4c0-1-0.1,0-0.5-0.8c0-0.1-0.1-0.1-0.1-0.2
	c0-0.1-0.1-0.1-0.1-0.2l-0.7-5.6h-4.3C80,25,79.3,25,77.9,27.1 M83,22.3c0.1,1.1,0.3,3.4,0.5,4.3h-3c0.3-1.1,0.6-1.1,0.9-2.4
	C81.8,22.6,81.2,22.3,83,22.3z"/>
<path class="st0" d="M116.2,20.9v10h1.9v-3c5.5,1.3,5.7-7.3,1.4-7.3L116.2,20.9z M118.1,26.6v-4.3c1.4-0.3,2.4,0.2,2.4,1.9v0.3
	C120.5,26,119.7,26.6,118.1,26.6z"/>
<path class="st0" d="M87.1,27.9h5.2v1.9h1.4c0-5.4-0.3-1.8-0.6-4.3c-0.1-1.4,0-3.5,0-4.9h-1.9v5.7H89v-5.7h-1.9
	C87.1,20.6,87.1,27.9,87.1,27.9z"/>
<path class="st0" d="M102.3,21.4v6.5h2.2v-3h2.2v3h1.9v-7.3h-1.9v3h-2.2c0-3.1,0.3-3-1.4-3C102.5,20.6,102.3,20.8,102.3,21.4"/>
<path class="st0" d="M70.8,24.1c0,4.6,3.5,4.2,6.5,3.5c-0.2-0.5-0.3-0.9-0.5-1.4c-2.4,0.4-3.3,0.8-3.8-1.1c0.7-0.3,3.2-0.5,4.3-0.5
	c0-3-0.1-4.1-3.5-4.1C72.2,20.6,70.8,22.5,70.8,24.1 M72.7,23.9c0.2-2.3,2.7-2.8,2.7-0.3C73.4,23.6,74.1,23.7,72.7,23.9z"/>
<path class="st0" d="M94.7,23.6c0,5.3,3.9,5.2,6.2,4.1c-0.1-0.7-0.1-0.7-0.3-1.4c-1.8,0.3-3.5,0.9-4.1-1.1c2.9-0.7,4.6-0.1,4.6-1.4
	C101.2,19.3,94.7,19.8,94.7,23.6 M96.3,23.9c0.9-2,0.4-2.2,2.7-1.6c0.1,0.6,0.2,0.6,0.3,1.4C97.8,23.6,97.5,23.8,96.3,23.9z"/>
<polygon class="st0" points="109.6,22.3 111.3,22.3 111.3,27.9 113.2,27.9 113.2,22.3 115.1,22.3 115.1,20.6 109.6,20.6 "/>
</svg>
